<?xml version="1.0" standalone="no"?><!DOCTYPE svg PUBLIC "-//W3C//DTD SVG 1.1//EN" "http://www.w3.org/Graphics/SVG/1.1/DTD/svg11.dtd"><svg class="icon" width="200px" height="200.00px" viewBox="0 0 1024 1024" version="1.1" xmlns="http://www.w3.org/2000/svg"><path d="M72.8064 89.6512m135.936 0l525.5168 0q135.936 0 135.936 135.936l0 580.4544q0 135.936-135.936 135.936l-525.5168 0q-135.936 0-135.936-135.936l0-580.4544q0-135.936 135.936-135.936Z" fill="#A5ADF6" /><path d="M638.8736 386.8672H225.792a40.96 40.96 0 1 1 0-81.92h413.0816a40.96 40.96 0 0 1 0 81.92zM481.9968 619.52h-256a40.96 40.96 0 1 1 0-81.92h256a40.96 40.96 0 0 1 0 81.92z" fill="#FFFFFF" /><path d="M636.7744 889.1392l-105.6256 10.752a19.4048 19.4048 0 0 1-21.8624-21.9136l10.7008-105.5744a54.6304 54.6304 0 0 1 15.9232-32.6144L819.2 456.448c19.5584-19.5584 49.2032-21.6576 66.1504-4.7104l71.936 71.68c16.9984 16.9984 14.8992 46.6432-4.6592 66.2016l-283.3408 283.3408a54.4768 54.4768 0 0 1-32.512 16.1792z" fill="#A5ADF6" /><path d="M870.4 442.4192a50.8928 50.8928 0 0 0-51.2 14.0288l-283.392 283.3408a54.6304 54.6304 0 0 0-15.9232 32.6144l-10.7008 105.6256a19.3536 19.3536 0 0 0 21.8624 21.8624l105.6256-10.752a54.4768 54.4768 0 0 0 32.6144-15.9232L870.4 672.3584z" fill="#635DF7" /></svg>