<?xml version="1.0" standalone="no"?><!DOCTYPE svg PUBLIC "-//W3C//DTD SVG 1.1//EN" "http://www.w3.org/Graphics/SVG/1.1/DTD/svg11.dtd"><svg class="icon" width="200px" height="200.00px" viewBox="0 0 1024 1024" version="1.1" xmlns="http://www.w3.org/2000/svg"><path d="M107.4688 93.0816m133.12 0l457.472 0q133.12 0 133.12 133.12l0 585.2672q0 133.12-133.12 133.12l-457.472 0q-133.12 0-133.12-133.12l0-585.2672q0-133.12 133.12-133.12Z" fill="#A5ADF6" /><path d="M633.2928 334.7968h-325.12a40.96 40.96 0 0 1 0-81.92h325.12a40.96 40.96 0 0 1 0 81.92zM633.2928 497.152h-325.12a40.96 40.96 0 0 1 0-81.92h325.12a40.96 40.96 0 0 1 0 81.92zM463.872 659.5584H308.1728a40.96 40.96 0 0 1 0-81.92H463.872a40.96 40.96 0 0 1 0 81.92z" fill="#FFFFFF" /><path d="M905.4208 871.6288l-39.3216-42.1888a176.7936 176.7936 0 1 0-52.5312 48.7936l39.2704 42.3424a35.84 35.84 0 1 0 52.5824-48.7424z m-288.9728-145.2544a105.5232 105.5232 0 1 1 105.472 105.5232 105.5744 105.5744 0 0 1-105.472-105.5232z" fill="#A5ADF6" /><path d="M813.2096 878.2336a132.5056 132.5056 0 0 0 17.9712-66.56v-224.6656a177.152 177.152 0 1 0-17.9712 291.2256z m-196.7616-151.8592a105.5232 105.5232 0 1 1 105.472 105.5232 105.5744 105.5744 0 0 1-105.472-105.5232z" fill="#635DF7" /></svg>