<?xml version="1.0" standalone="no"?><!DOCTYPE svg PUBLIC "-//W3C//DTD SVG 1.1//EN" "http://www.w3.org/Graphics/SVG/1.1/DTD/svg11.dtd"><svg class="icon" width="200px" height="200.00px" viewBox="0 0 1024 1024" version="1.1" xmlns="http://www.w3.org/2000/svg"><path d="M91.9552 173.2096m133.12 0l493.2096 0q133.12 0 133.12 133.12l0 504.7296q0 133.12-133.12 133.12l-493.2096 0q-133.12 0-133.12-133.12l0-504.7296q0-133.12 133.12-133.12Z" fill="#80B7F9" /><path d="M245.0944 69.12m99.1232 0l254.976 0q99.1232 0 99.1232 99.1232l0 36.5568q0 99.1232-99.1232 99.1232l-254.976 0q-99.1232 0-99.1232-99.1232l0-36.5568q0-99.1232 99.1232-99.1232Z" fill="#80B7F9" /><path d="M245.0944 173.2096v30.72a99.7376 99.7376 0 0 0 99.7376 99.9424h253.7472a99.7376 99.7376 0 0 0 99.7376-99.7376v-30.72z" fill="#3E8BF8" /><path d="M406.4768 812.6976H281.9584a40.96 40.96 0 1 1 0-81.92h124.5184a40.96 40.96 0 1 1 0 81.92zM437.3504 646.2464H281.9584a40.96 40.96 0 1 1 0-81.92h155.392a40.96 40.96 0 0 1 0 81.92zM664.576 479.8464H281.9584a40.96 40.96 0 1 1 0-81.92h382.6176a40.96 40.96 0 0 1 0 81.92z" fill="#F7F8F8" /><path d="M730.0096 728.4736m-221.5936 0a221.5936 221.5936 0 1 0 443.1872 0 221.5936 221.5936 0 1 0-443.1872 0Z" fill="#80B7F9" /><path d="M730.0096 506.88a221.5936 221.5936 0 0 0-50.3296 437.3504h38.6048a133.12 133.12 0 0 0 133.12-133.12v-267.9808A220.416 220.416 0 0 0 730.0096 506.88z" fill="#3E8BF8" /><path d="M830.6688 796.9792h-211.7632a40.96 40.96 0 0 1-32.9216-65.3312l62.72-84.8384a40.96 40.96 0 0 1 65.8944 48.6912l-14.4896 19.5584h130.56a40.96 40.96 0 0 1 0 81.92z" fill="#F7F8F8" /></svg>