<?xml version="1.0" standalone="no"?><!DOCTYPE svg PUBLIC "-//W3C//DTD SVG 1.1//EN" "http://www.w3.org/Graphics/SVG/1.1/DTD/svg11.dtd"><svg class="icon" width="200px" height="200.00px" viewBox="0 0 1024 1024" version="1.1" xmlns="http://www.w3.org/2000/svg"><path d="M92.672 156.1088m121.5488 0l443.9552 0q121.5488 0 121.5488 121.5488l0 560.0768q0 121.5488-121.5488 121.5488l-443.9552 0q-121.5488 0-121.5488-121.5488l0-560.0768q0-121.5488 121.5488-121.5488Z" fill="#80B7F9" /><path d="M213.7088 63.4368m121.5488 0l419.2256 0q121.5488 0 121.5488 121.5488l0 560.0768q0 121.5488-121.5488 121.5488l-419.2256 0q-121.5488 0-121.5488-121.5488l0-560.0768q0-121.5488 121.5488-121.5488Z" fill="#80B7F9" /><path d="M658.7392 156.1088h-440.32a132.608 132.608 0 0 0-4.4544 34.048v549.7344c0 69.9904 54.1696 126.72 120.9856 126.72h420.3008a115.8144 115.8144 0 0 0 20.7872-1.8944 133.12 133.12 0 0 0 3.9424-32.1536V282.7776c-0.256-69.9392-54.4256-126.6688-121.2416-126.6688z" fill="#3E8BF8" /><path d="M532.48 534.0672H213.7088a40.96 40.96 0 0 1 0-81.92H532.48a40.96 40.96 0 0 1 0 81.92zM532.48 348.928H213.7088a40.96 40.96 0 1 1 0-81.92H532.48a40.96 40.96 0 0 1 0 81.92zM431.0016 719.2576H213.7088a40.96 40.96 0 0 1 0-81.92h217.2928a40.96 40.96 0 1 1 0 81.92z" fill="#FFFFFF" /><path d="M920.9856 863.2832l-39.3216-42.3936a176.7936 176.7936 0 1 0-52.5312 48.7936l39.2704 42.3424a35.84 35.84 0 1 0 52.5824-48.7424z m-288.9728-145.2544A105.5232 105.5232 0 1 1 737.28 823.552a105.5744 105.5744 0 0 1-105.2672-105.5232z" fill="#80B7F9" /></svg>